# xmcd
#
# Track frame offsets:
#	150
#	16488
#	30597
#	48113
#	64122
#	78681
#	94481
#	109604
#	128053
#	145952
#	157371
#	170210
#	187544
#	201204
#	216459
#	238446
#
# Disc length: 3374 seconds
#
# Revision: 5
# Processed by: cddbd v1.5.1PL0 Copyright (c) Steve Scherf et al.
# Submitted via: audiograbber 1.83.01
#
DISCID=ee0d2c10
DTITLE=1997-03 Country Radio - 1997-03 Country Radio
DYEAR=1997
DGENRE=Country
TTITLE0=Jeff Carson - Do It Again
TTITLE1=Aaron Tippin - A Door
TTITLE2=Brooks and Dunn - Why Wouldn't I Say Goodbye
TTITLE3=Tracy Lawrence - Better Man, Better Off
TTITLE4=Jeffery Steele - A Girl Like You
TTITLE5=Alabama - Sad Lookin' Moon
TTITLE6=Leann Rimes - The Light In Your Eyes
TTITLE7=Jeff Wood - Use Mine
TTITLE8=Kris Tyler - Kepping Your Kisses
TTITLE9=Sara Evans - True Lies
TTITLE10=Sawyer Brown - Six Days On The Road
TTITLE11=Western Flyer - Wish You Were Here
TTITLE12=Perfect Stranger - Fire When Ready
TTITLE13=Greg Holland - Divine Intervention
TTITLE14=Lyle Lovett - That's Right (You're Not From Texas)
TTITLE15=Michelle Allen - Jenny Got A Ring
EXTD=
EXTT0=
EXTT1=
EXTT2=
EXTT3=
EXTT4=
EXTT5=
EXTT6=
EXTT7=
EXTT8=
EXTT9=
EXTT10=
EXTT11=
EXTT12=
EXTT13=
EXTT14=
EXTT15=
PLAYORDER=
